<?xml version="1.0" encoding="UTF-8" standalone="no"?>
<!-- Created with Inkscape (http://www.inkscape.org/) -->

<svg
   xmlns:dc="http://purl.org/dc/elements/1.1/"
   xmlns:cc="http://creativecommons.org/ns#"
   xmlns:rdf="http://www.w3.org/1999/02/22-rdf-syntax-ns#"
   xmlns:svg="http://www.w3.org/2000/svg"
   xmlns="http://www.w3.org/2000/svg"
   xmlns:sodipodi="http://sodipodi.sourceforge.net/DTD/sodipodi-0.dtd"
   xmlns:inkscape="http://www.inkscape.org/namespaces/inkscape"
   width="273.12317mm"
   height="87.501755mm"
   viewBox="0 0 245.81085 78.751576"
   version="1.1"
   id="svg8"
   inkscape:version="0.92.4 (5da689c313, 2019-01-14)"
   sodipodi:docname="Zeichnung.svg">
  <defs
     id="defs2" />
  <sodipodi:namedview
     id="base"
     pagecolor="#ffffff"
     bordercolor="#666666"
     borderopacity="1.0"
     inkscape:pageopacity="0.0"
     inkscape:pageshadow="2"
     inkscape:zoom="0.70710678"
     inkscape:cx="451.67427"
     inkscape:cy="-29.433314"
     inkscape:document-units="mm"
     inkscape:current-layer="g872"
     showgrid="false"
     inkscape:window-width="1920"
     inkscape:window-height="1017"
     inkscape:window-x="-8"
     inkscape:window-y="-8"
     inkscape:window-maximized="1"
     scale-x="0.9"
     fit-margin-top="0"
     fit-margin-left="0"
     fit-margin-right="0"
     fit-margin-bottom="0" />
  <metadata
     id="metadata5">
    <rdf:RDF>
      <cc:Work
         rdf:about="">
        <dc:format>image/svg+xml</dc:format>
        <dc:type
           rdf:resource="http://purl.org/dc/dcmitype/StillImage" />
        <dc:title></dc:title>
      </cc:Work>
    </rdf:RDF>
  </metadata>
  <g
     inkscape:label="Ebene 1"
     inkscape:groupmode="layer"
     id="layer1"
     transform="translate(1.34011,-84.563827)">
    <g
       id="g872"
       transform="translate(-218.3592,66.282843)">
      <path
         style="fill:#09090a;stroke-width:0.26458332"
         d="m 386.46785,96.67627 c -0.0729,-0.18997 -0.0989,-1.82708 -0.0578,-3.63802 l 0.0747,-3.29261 0.70824,-0.0818 c 1.46181,-0.16894 1.47522,-0.30598 0.66508,-6.79732 -0.2361,-1.89177 -0.7401,-6.59474 -1.11999,-10.45104 -0.37989,-3.8563 -0.81422,-7.96396 -0.96518,-9.12813 -0.3598,-2.77473 -0.59787,-20.22736 -0.28025,-20.54498 0.3407,-0.34069 3.05794,0.41135 4.46443,1.23561 l 1.15788,0.67856 v 4.61471 c 0,4.05691 0.49431,11.60552 0.94815,14.47913 0.24025,1.52122 0.8077,1.23821 1.06098,-0.52917 0.11992,-0.83675 0.22293,-5.21229 0.22893,-9.72344 0.0107,-8.03198 0.0219,-8.20148 0.54006,-8.17297 0.89668,0.0493 4.67716,1.13568 5.06114,1.45436 0.44171,0.36659 0.49795,7.12227 0.0989,11.87799 -0.75501,8.99763 -0.85311,10.71226 -1.56983,27.44037 l -0.21778,5.08308 -1.42338,2.45066 c -1.28618,2.21443 -1.53798,2.49456 -2.61225,2.90617 -1.51042,0.57872 -6.55345,0.68231 -6.76198,0.13889 z m 67.48561,-2.99224 c -1.5993,-0.49221 -3.99217,-2.71119 -5.16999,-4.79428 L 448.00033,87.5047 V 77.16014 66.81558 l 0.82288,-1.89643 c 1.22367,-2.82018 2.66383,-4.14539 4.5049,-4.14539 0.47086,0 1.63764,0.19103 2.59282,0.42451 1.52405,0.37254 1.94161,0.62361 3.41034,2.05052 1.14832,1.11563 1.91654,2.15657 2.4474,3.31626 l 0.77375,1.69024 v 5.38736 c 0,6.23094 0.30331,5.75486 -3.08753,4.84618 -1.22111,-0.32722 -2.60512,-0.51027 -3.50086,-0.46302 l -1.48141,0.0782 -0.0767,2.33356 c -0.10154,3.08897 0.68684,6.2654 1.55504,6.2654 0.51747,0 0.86056,-1.34631 1.00912,-3.96002 0.14722,-2.58975 0.19585,-2.78186 0.68757,-2.71622 0.29105,0.0388 1.5412,0.1579 2.77813,0.26458 l 2.24896,0.19395 0.0726,4.61656 0.0726,4.61656 -1.63587,1.65055 c -2.26623,2.28657 -4.75149,3.08121 -7.24061,2.31514 z m 2.45816,-23.32329 c 0.0653,-1.85699 0.009,-2.21298 -0.37195,-2.35923 -1.0042,-0.38535 -2.01104,2.47497 -1.41917,4.03173 0.20569,0.54101 0.40955,0.6646 0.98674,0.59819 0.72093,-0.083 0.72816,-0.10335 0.80438,-2.27069 z M 217.19548,93.14112 c -0.097,-0.097 -0.17639,-8.11915 -0.17639,-17.82697 0,-13.9788 0.0701,-17.70881 0.33722,-17.93046 0.33483,-0.27788 1.61212,-0.72537 3.89612,-1.36497 0.65484,-0.18337 1.48828,-0.42728 1.85208,-0.54201 0.90575,-0.28565 2.74069,-0.71293 4.57211,-1.06466 1.44317,-0.27717 1.59618,-0.25459 2.71394,0.40046 2.28207,1.33738 3.03271,3.43769 3.03271,8.48565 0,3.31988 -0.0382,3.5738 -0.74078,4.9186 -0.47467,0.90862 -1.13999,1.68612 -1.85209,2.16437 -1.6033,1.07679 -1.50211,1.81174 0.33474,2.43117 0.9843,0.33194 1.84055,1.58729 2.4035,3.52377 0.35852,1.23325 0.41795,2.44036 0.33443,6.7932 -0.12155,6.33461 -0.3279,6.9773 -2.65623,8.27256 -1.32683,0.73813 -2.2829,1.00503 -5.87135,1.63908 -1.72464,0.30473 -7.89984,0.38038 -8.18001,0.10021 z m 8.93871,-7.12442 c 0.36051,-0.36051 0.41121,-1.11818 0.34963,-5.22552 l -0.072,-4.80388 h -0.92604 -0.92604 l -0.072,4.80388 c -0.0616,4.10734 -0.0109,4.86501 0.34963,5.22552 0.23191,0.23191 0.5237,0.42165 0.64843,0.42165 0.12473,0 0.41653,-0.18974 0.64843,-0.42165 z m 0.35188,-20.21346 c 0.0641,-3.08319 0.0141,-3.61347 -0.36728,-3.89236 -0.45349,-0.3316 -1.34703,-0.0601 -1.72872,0.52518 -0.22464,0.34448 -0.0794,6.40134 0.16286,6.79338 0.10381,0.16797 0.56452,0.26892 1.02381,0.22434 l 0.83506,-0.0811 z m 23.58372,26.32858 c -1.09101,-0.56841 -1.29826,-0.83537 -2.0632,-2.6577 -0.81368,-1.93841 -0.85267,-2.19313 -0.90382,-5.90423 -0.0473,-3.43364 0.0183,-4.10599 0.57245,-5.86279 0.71467,-2.26577 1.28009,-3.059 4.83174,-6.7786 2.88084,-3.01706 2.96687,-3.14595 3.36814,-5.04601 0.50051,-2.36994 -0.41879,-5.79194 -1.50032,-5.58477 -0.38978,0.0747 -0.46308,0.62136 -0.57861,4.31567 l -0.13229,4.23016 h -2.91042 -2.9104 l 0.0161,-4.23333 c 0.0158,-4.15159 0.0317,-4.26654 0.82327,-5.95312 0.88554,-1.88671 2.96476,-4.06732 4.73631,-4.96725 0.5714,-0.29026 1.73405,-0.67123 2.58367,-0.84658 1.49879,-0.30934 1.58036,-0.29647 2.74195,0.4324 0.95855,0.60147 1.31779,1.05041 1.80209,2.25213 1.4321,3.55353 1.48403,4.34277 1.3985,21.25325 l -0.079,15.61042 -2.69163,0.0752 -2.69162,0.0752 -0.71322,-0.93508 c -0.84665,-1.11002 -1.62669,-1.2218 -1.86622,-0.26744 -0.20656,0.82299 -1.06262,1.4531 -1.95191,1.43672 -0.3678,-0.007 -1.21451,-0.29667 -1.88158,-0.64421 z m 5.50177,-8.07707 c 0.36338,-0.71822 0.44561,-5.71588 0.12403,-7.53828 -0.14528,-0.82329 -0.31808,-1.0771 -0.77807,-1.14282 -0.43588,-0.0623 -0.66099,0.0987 -0.85634,0.61253 -0.35581,0.93585 -0.34173,7.69777 0.0174,8.36886 0.36422,0.68056 1.06836,0.53893 1.49295,-0.30029 z m 175.78683,8.31597 c -2.35903,-0.74047 -2.14347,1.60145 -2.14347,-23.28797 0,-12.65917 0.10062,-22.09828 0.23648,-22.18224 0.13004,-0.0804 0.69559,0.0496 1.25677,0.28876 0.56116,0.2392 1.8396,0.65353 2.84099,0.92074 1.0014,0.26721 1.98366,0.62108 2.18281,0.78636 0.30102,0.24982 0.36211,3.95054 0.36211,21.93565 0,19.48433 -0.0416,21.65109 -0.41851,21.79573 -0.70501,0.27053 -3.08854,0.12863 -4.31718,-0.25703 z m 10.9534,0.1062 c -0.43656,-0.15405 -1.41883,-0.88708 -2.18281,-1.62895 l -1.38906,-1.34884 V 77.25137 65.0036 l -0.66146,-0.57513 C 437.44303,63.87598 437.417,63.73089 437.417,60.74362 v -3.10971 l 0.7276,-0.0837 0.72761,-0.0837 0.0769,-2.51108 c 0.0423,-1.3811 0.17598,-2.61015 0.29705,-2.73122 0.12107,-0.12107 1.39615,0.15969 2.8335,0.6239 4.26429,1.37722 3.804,0.88805 3.804,4.04255 0,2.40678 0.0648,2.80146 0.52916,3.22168 0.46107,0.41725 0.52917,0.81491 0.52917,3.08939 0,2.52778 -0.0209,2.62005 -0.66146,2.91188 l -0.66146,0.30138 v 10.0049 10.00491 l 0.80288,0.41518 0.80288,0.41519 -0.0753,2.70046 -0.0753,2.70047 -1.98437,0.0505 c -1.09141,0.0278 -2.34157,-0.0756 -2.77813,-0.22962 z M 235.7245,92.35555 c -0.10151,-0.10151 -0.18457,-7.47249 -0.18457,-16.37994 0,-12.63489 0.0727,-16.25517 0.33073,-16.46732 0.36753,-0.3022 5.69865,-2.17411 6.19176,-2.17411 0.17192,0 0.42237,0.32742 0.55656,0.7276 l 0.24398,0.72761 0.43003,-0.82838 c 0.54883,-1.05725 1.91786,-2.21433 2.61995,-2.21433 0.52934,0 0.53824,0.087 0.3583,3.50573 -0.10149,1.92815 -0.29744,4.63572 -0.43546,6.01683 l -0.25095,2.5111 -1.54627,1.58994 c -0.85045,0.87447 -1.65204,1.82807 -1.7813,2.11911 -0.12927,0.29104 -0.29457,5.11307 -0.36733,10.71562 l -0.13229,10.18646 -2.92429,0.0743 c -1.60836,0.0409 -3.00734,-0.009 -3.10885,-0.11024 z m 183.09014,-0.20952 c -0.7587,-0.20398 -1.647,-0.70402 -2.2009,-1.23892 -1.58937,-1.53484 -3.21838,-4.52736 -3.93917,-7.2363 -0.64848,-2.43724 -0.65757,-2.61839 -0.65757,-13.10746 0,-10.50582 0.008,-10.66651 0.66146,-13.12206 0.3638,-1.36729 0.66146,-2.72731 0.66146,-3.02225 0,-0.89794 1.97369,-2.79689 3.29003,-3.16545 0.97575,-0.27319 1.44149,-0.25759 2.82997,0.0948 1.41119,0.35813 1.89628,0.65195 3.2145,1.94702 0.85388,0.83889 2.01064,2.30397 2.57058,3.25574 1.20821,2.05367 1.47242,3.81288 1.75738,11.70137 0.16823,4.65668 0.15027,4.95241 -0.31143,5.12959 -0.26947,0.1034 -1.86565,0.0352 -3.54705,-0.15163 -1.68141,-0.1868 -3.35476,-0.3573 -3.71857,-0.3789 l -0.66145,-0.0393 v 5.68218 5.68217 l 0.74318,0.26136 c 0.57584,0.20251 0.79834,0.17416 0.98813,-0.12592 0.13473,-0.21301 0.24678,-2.37455 0.24901,-4.80344 0.002,-2.42889 0.11339,-4.48373 0.24703,-4.56633 0.13364,-0.0826 0.93731,0.0384 1.78594,0.26879 0.84862,0.23043 2.07874,0.55887 2.73358,0.72987 l 1.19062,0.31091 0.0798,4.63021 c 0.10421,6.04418 -0.2178,7.46051 -2.14918,9.45311 -2.11095,2.17786 -3.19595,2.5156 -5.81739,1.81082 z m 1.53674,-29.52018 v -3.57188 h -0.78927 c -0.71313,0 -0.80736,0.10208 -0.97694,1.05833 -0.23715,1.33731 -0.27213,5.24007 -0.0521,5.81344 0.11522,0.30027 0.41899,0.40815 0.99218,0.35237 l 0.82613,-0.0804 z M 264.41022,91.89931 c -0.21734,-0.26187 -0.2802,-5.78075 -0.23084,-20.26772 l 0.0678,-19.90785 2.72365,-1.16353 c 3.04726,-1.30178 3.64802,-1.39972 3.89094,-0.63436 0.27429,0.86423 1.04393,0.6168 1.69728,-0.54568 0.6834,-1.21596 1.38394,-1.57099 3.09983,-1.57099 1.60853,0 2.16177,0.35299 2.83454,1.80856 0.56585,1.22423 0.57104,1.39357 0.64662,21.0779 0.0419,10.91406 0.009,20.11539 -0.0733,20.4474 -0.14637,0.59115 -0.21367,0.6021 -3.25119,0.52916 l -3.10172,-0.0745 -0.0681,-17.45119 c -0.0377,-9.67096 -0.1725,-17.55563 -0.30232,-17.68545 -0.42384,-0.42383 -1.24864,0.28719 -1.56743,1.35121 -0.22407,0.74789 -0.31114,5.66785 -0.31114,17.58209 0,14.84153 -0.0431,16.56012 -0.41851,16.7042 -0.86541,0.33209 -5.32609,0.17438 -5.63619,-0.19927 z m 19.79215,-0.5615 c -0.67555,-0.36732 -1.60524,-1.59329 -2.45353,-3.2354 -0.40398,-0.78205 -0.41742,-2.28085 -0.16923,-18.87921 0.2454,-16.41204 0.31526,-18.20406 0.77852,-19.97276 0.85013,-3.24572 1.55399,-4.0386 3.79001,-4.26938 1.30477,-0.13466 1.56061,-0.0742 2.40211,0.56763 0.51799,0.3951 1.06601,0.64159 1.21782,0.54777 0.17771,-0.10984 0.27602,-2.18553 0.27602,-5.82791 0,-4.23716 0.083,-5.71016 0.33073,-5.86785 0.73279,-0.46651 5.37138,-1.89296 5.55743,-1.70902 0.10979,0.10855 0.16932,13.16869 0.13229,29.02254 l -0.0673,28.82517 h -3.175 c -3.09115,0 -3.17723,-0.0157 -3.25955,-0.59531 -0.11599,-0.81674 -0.59909,-0.74615 -1.51959,0.22206 -1.43382,1.5081 -2.57929,1.85755 -3.8407,1.17167 z m 4.99821,-9.65125 c 0.57753,-0.78115 0.57892,-0.81526 0.57892,-14.14276 0,-9.40543 -0.0889,-13.55488 -0.30042,-14.01907 -0.31614,-0.69386 -0.9058,-1.0564 -1.31095,-0.806 -0.13991,0.0865 -0.24071,6.34663 -0.24071,14.94982 0,15.86073 -0.01,15.75325 1.27316,14.01801 z m 110.82719,9.87228 c -0.0999,-0.0999 -0.1816,-2.6978 -0.1816,-5.77314 0,-5.48682 0.0196,-5.68544 1.04379,-10.60539 1.01286,-4.86519 1.49191,-6.82308 2.68338,-10.96696 0.31381,-1.09141 0.62656,-3.06985 0.69499,-4.39653 l 0.12443,-2.41216 -1.81027,-0.89514 -1.81028,-0.89513 -0.0733,-4.08993 c -0.0403,-2.24947 -0.0165,-4.23799 0.0529,-4.41893 0.0918,-0.2392 0.94229,-0.0427 3.11604,0.72006 1.64439,0.57699 3.99439,1.34445 5.22223,1.70548 1.22783,0.36102 2.32734,0.8059 2.44334,0.98861 0.30301,0.47726 0.26889,9.37838 -0.038,9.92694 -0.29019,0.51864 -1.11875,3.43165 -1.59817,5.61881 -0.34061,1.55384 -1.52031,6.62456 -2.40066,10.31875 -0.33559,1.40823 -0.50573,2.89187 -0.45513,3.96875 l 0.0808,1.71979 1.46174,0.15723 c 2.73906,0.29461 2.66328,0.14537 2.57965,5.08108 l -0.0726,4.28669 -5.44079,0.0714 c -2.99243,0.0393 -5.52251,-0.0104 -5.6224,-0.11025 z m -101.6007,-1.07785 c -0.0685,-0.1134 -0.16696,-13.40073 -0.21885,-29.52738 -0.088,-27.35169 -0.0642,-29.33807 0.35436,-29.57233 0.88386,-0.49466 6.16501,-2.09912 6.49391,-1.97291 0.269,0.10323 0.3223,6.18537 0.2684,30.62991 l -0.0673,30.50111 -3.35303,0.0739 c -1.84417,0.0406 -3.40906,-0.0189 -3.47753,-0.1323 z m 51.15319,-0.50723 c -0.45619,-0.38385 -1.29205,-1.61802 -1.85747,-2.74259 -0.96571,-1.92069 -1.06325,-2.33963 -1.60864,-6.90885 -0.5428,-4.54754 -0.56043,-5.22588 -0.27075,-10.42043 0.17041,-3.05594 0.44806,-6.12407 0.61699,-6.81806 0.32376,-1.33004 1.05151,-2.11885 6.11538,-6.62842 l 2.02665,-1.80481 v -5.41076 -5.41076 l -0.65363,-0.29781 c -1.33477,-0.60816 -1.44527,-0.1856 -1.5239,5.82728 l -0.0714,5.46209 -1.95042,-0.0946 c -1.07274,-0.052 -2.50149,-0.23061 -3.175,-0.39687 -1.2158,-0.30013 -1.22584,-0.31179 -1.39984,-1.62522 -0.33717,-2.54513 -0.21714,-6.17248 0.3232,-9.76714 0.4581,-3.04753 0.72461,-4.01155 1.67441,-6.05676 1.50181,-3.23383 2.51165,-4.15214 4.56597,-4.15214 2.23049,0 4.31968,1.19756 5.49227,3.14827 1.49064,2.47982 1.9097,3.51389 2.26252,5.58298 0.18611,1.09141 0.44289,2.40109 0.57064,2.91042 0.37955,1.51332 0.30072,44.80782 -0.0823,45.19083 -0.20551,0.20551 -1.27098,0.3175 -3.02064,0.3175 -2.63881,0 -2.71627,-0.0173 -3.2546,-0.7276 -0.5297,-0.6989 -0.56354,-0.7073 -0.85782,-0.21303 -0.57395,0.96404 -1.62099,1.73438 -2.35736,1.73438 -0.40802,0 -1.10368,-0.31038 -1.56424,-0.69792 z m 4.3607,-17.29375 c 0,-4.92232 -0.0831,-6.73047 -0.31282,-6.80705 -0.75662,-0.2522 -0.98201,1.13997 -1.09152,6.74228 -0.0965,4.93512 -0.0557,5.70661 0.33334,6.30028 0.95289,1.45429 1.071,0.76662 1.071,-6.23551 z M 311.92438,89.6721 c -1.68279,-0.9676 -3.00927,-3.24706 -4.04114,-6.9444 l -0.77353,-2.77165 -0.0791,-14.68437 c -0.0901,-16.72342 0.0236,-18.16769 1.80504,-22.94121 1.20735,-3.23516 1.93155,-4.24996 3.73245,-5.23014 2.79425,-1.52081 4.00939,-1.33307 6.23654,0.96358 1.48755,1.53397 2.3453,3.58656 2.98626,7.14611 0.45402,2.52141 0.53232,4.09692 0.53232,10.71018 v 7.7539 l -0.59531,0.12475 c -0.32742,0.0686 -1.96829,0.16684 -3.64638,0.21829 -1.67808,0.0515 -3.19613,0.1832 -3.37343,0.29278 -0.24217,0.14967 -0.32238,2.22905 -0.32238,8.3574 0,8.67035 0.0431,8.95369 1.23106,8.08604 0.44473,-0.32483 0.50065,-0.92472 0.62103,-6.66256 l 0.13229,-6.30558 1.91747,-0.19125 c 1.05461,-0.10519 2.2785,-0.37795 2.71975,-0.60613 0.44125,-0.22818 0.91784,-0.34345 1.05909,-0.25615 0.15424,0.0953 0.25681,2.64165 0.25681,6.37514 0,5.81139 -0.0427,6.36827 -0.65524,8.54691 -1.18164,4.20272 -2.64019,6.77404 -4.59654,8.10342 -1.37718,0.93581 -3.43067,0.90188 -5.14709,-0.0851 z m 3.45983,-38.62767 c 0.062,-3.91098 0.0138,-4.59245 -0.3341,-4.72595 -0.22358,-0.0858 -0.58359,-0.009 -0.80002,0.17058 -0.3169,0.263 -0.3935,1.11443 -0.3935,4.37359 0,2.22585 0.0747,4.24163 0.16596,4.4795 0.0979,0.2551 0.39634,0.39964 0.72761,0.35237 0.54443,-0.0777 0.56385,-0.22013 0.63405,-4.65009 z m 63.5353,38.96853 c -0.84606,-0.45995 -1.79746,-1.68585 -2.71601,-3.49967 l -0.699,-1.38027 V 67.41634 49.69967 l -0.7276,-0.57312 -0.72761,-0.57313 -0.13229,3.91702 -0.13229,3.91702 -0.89355,0.18224 c -1.08082,0.22044 -2.16379,0.98654 -2.6128,1.84832 -0.25403,0.48754 -0.32923,4.03189 -0.32223,15.18803 0.005,8.00365 0.005,14.94271 5.2e-4,15.42013 l -0.008,0.86804 -3.24114,-0.0743 -3.24115,-0.0743 -0.0682,-26.19375 c -0.0375,-14.40656 -0.0151,-26.33321 0.0498,-26.50365 0.0859,-0.22563 0.60811,-0.17001 1.92028,0.20458 4.53635,1.29497 4.30543,1.15201 4.31173,2.66939 0.002,0.53711 0.12166,1.04926 0.2654,1.1381 0.14375,0.0888 0.86634,-0.40436 1.60576,-1.096 1.83667,-1.71798 2.20598,-1.48377 2.31092,1.46553 0.0461,1.29497 0.17888,2.10086 0.33073,2.00701 0.13955,-0.0863 0.25374,-0.50992 0.25374,-0.9415 0,-0.59354 0.16112,-0.84594 0.66146,-1.03617 0.66055,-0.25114 0.66145,-0.25638 0.66145,-3.82991 0,-4.09912 -0.15834,-3.90426 2.56678,-3.15862 0.84385,0.23089 1.9246,0.51677 2.40166,0.63528 1.55928,0.38737 1.624,0.5459 1.70458,4.17538 l 0.0739,3.32639 0.79375,0.43906 0.79375,0.43905 0.0734,3.75154 0.0734,3.75154 -0.66874,0.3047 -0.66874,0.3047 0.004,14.97263 c 0.002,8.23495 0.094,15.11402 0.20382,15.28681 0.10988,0.1728 0.52478,0.43774 0.922,0.58877 l 0.72222,0.27458 v 3.52551 c 0,2.38928 -0.10233,3.62783 -0.3175,3.84301 -0.45655,0.45654 -4.65418,0.39835 -5.52791,-0.0766 z m -48.73808,-1.11947 c -0.0661,-0.1134 -0.20614,-15.39203 -0.31126,-33.95251 -0.21172,-37.38395 -0.35089,-34.18471 1.50756,-34.65636 0.47707,-0.12108 1.76037,-0.45797 2.85177,-0.74866 5.6333,-1.50037 5.09494,-1.41531 6.15495,-0.97241 0.83325,0.34815 1.12528,0.72268 2.01901,2.58935 2.22609,4.6495 2.184,4.24911 2.07277,19.71765 -0.0915,12.72732 -0.13533,13.8109 -0.62582,15.47643 -0.38461,1.30598 -0.80931,2.08289 -1.56843,2.86918 -1.1927,1.23536 -1.83508,1.54626 -3.68685,1.78437 l -1.32292,0.17011 -0.13229,13.89062 -0.13229,13.89063 -3.35303,0.0739 c -1.84417,0.0406 -3.4071,-0.0189 -3.47317,-0.1323 z m 8.2194,-48.43968 c 0.0456,-4.85672 -0.0272,-7.66285 -0.20775,-8.00013 -0.33482,-0.62561 -0.9357,-0.67805 -1.15714,-0.10098 -0.29136,0.75927 -0.18012,14.66105 0.12183,15.22525 0.15534,0.29026 0.48276,0.4892 0.7276,0.44211 0.40266,-0.0774 0.45189,-0.8001 0.51546,-7.56625 z M 249.22876,52.1494 c -0.10729,-0.10729 -0.19508,-1.526 -0.19508,-3.15269 0,-2.48657 0.0737,-3.02189 0.46302,-3.36132 0.60951,-0.53145 3.47616,-1.57987 3.78979,-1.38605 0.1348,0.0833 0.2451,1.80331 0.2451,3.82221 0,4.15923 0.21356,3.81109 -2.5169,4.10291 -0.87497,0.0935 -1.67863,0.0822 -1.78593,-0.0251 z m 7.1471,-1.84434 c -0.10914,-0.11156 -0.19844,-1.60972 -0.19844,-3.32927 v -3.12645 l 1.26065,-0.63882 c 1.15089,-0.5832 2.02481,-0.80037 2.90654,-0.72229 0.24684,0.0219 0.33073,0.93698 0.33073,3.60771 v 3.57842 l -0.67759,0.25762 c -0.95985,0.36494 -3.38541,0.61478 -3.62189,0.37308 z"
         id="path874"
         inkscape:connector-curvature="0" />
      <flowRoot
         xml:space="preserve"
         id="flowRoot882"
         style="fill:black;fill-opacity:1;stroke:none;font-family:sans-serif;font-style:normal;font-weight:normal;font-size:40px;line-height:1.25;letter-spacing:0px;word-spacing:0px"><flowRegion
           id="flowRegion884"><rect
             id="rect886"
             width="374.7666"
             height="91.923882"
             x="-456.79099"
             y="83.227928" /></flowRegion><flowPara
           id="flowPara888"></flowPara></flowRoot>      <flowRoot
         xml:space="preserve"
         id="flowRoot890"
         style="fill:black;fill-opacity:1;stroke:none;font-family:sans-serif;font-style:normal;font-weight:normal;font-size:40px;line-height:1.25;letter-spacing:0px;word-spacing:0px"><flowRegion
           id="flowRegion892"><rect
             id="rect894"
             width="771.91357"
             height="138.78552"
             x="-651.95245"
             y="69.085793" /></flowRegion><flowPara
           id="flowPara896"></flowPara></flowRoot>    </g>
  </g>
</svg>
